<?xml version="1.0" standalone="no"?>
<!DOCTYPE svg PUBLIC "-//W3C//DTD SVG 20010904//EN"
 "http://www.w3.org/TR/2001/REC-SVG-20010904/DTD/svg10.dtd">
<svg version="1.0" xmlns="http://www.w3.org/2000/svg"
 width="640.000000pt" height="640.000000pt" viewBox="0 0 640.000000 640.000000"
 preserveAspectRatio="xMidYMid meet">
<metadata>
Created by potrace 1.14, written by Peter Selinger 2001-2017
</metadata>
<g transform="translate(0.000000,640.000000) scale(0.100000,-0.100000)"
fill="#000000" stroke="none">
<path d="M1034 5744 c-23 -8 -60 -33 -82 -56 -78 -79 -87 -168 -32 -328 18
-52 33 -99 35 -105 1 -5 5 -18 10 -28 12 -28 -1 -31 -27 -7 -13 12 -35 29 -50
38 -16 9 -28 20 -28 24 0 4 -6 8 -14 8 -8 0 -16 3 -18 8 -3 8 -130 99 -168
121 -34 19 -166 19 -201 0 -90 -50 -134 -122 -134 -219 1 -75 21 -125 69 -170
17 -16 94 -75 171 -131 95 -69 131 -100 112 -97 -15 3 -30 2 -32 -3 -3 -4 -18
-4 -33 0 -15 5 -36 5 -47 1 -11 -4 -34 -4 -52 0 -18 4 -34 6 -36 4 -2 -2 -27
-6 -55 -9 -28 -3 -64 -10 -79 -16 -15 -6 -36 -12 -45 -14 -29 -6 -121 -70
-166 -116 -40 -41 -103 -150 -120 -209 -10 -36 -14 -3395 -3 -3422 5 -13 14
-41 21 -63 18 -55 68 -132 121 -183 53 -51 163 -108 238 -122 53 -10 1611 -15
1611 -5 0 2 -11 30 -25 62 -31 68 -43 118 -51 210 -3 37 -8 71 -11 75 -2 5 0
8 5 8 5 0 6 20 2 45 -4 24 -4 49 0 54 3 6 3 32 0 58 -3 27 -3 84 0 129 3 45 3
94 0 110 -4 16 -3 43 0 59 4 17 4 41 0 55 -3 14 -3 38 0 55 3 16 3 51 0 76 -3
26 -3 55 0 65 4 10 4 32 0 49 -3 16 -4 41 0 55 3 13 3 46 0 71 -3 26 -3 54 0
64 3 9 3 41 0 71 -3 30 -2 54 3 54 4 0 6 4 3 8 -5 9 -7 54 -6 219 0 61 0 115
-1 120 -1 4 -1 10 0 13 1 3 2 195 2 428 1 440 6 507 46 577 9 17 16 31 14 33
-1 2 12 28 29 59 50 89 160 191 260 241 47 23 93 42 102 42 22 0 27 10 34 62
12 103 42 213 80 296 13 29 24 55 24 58 0 3 16 30 35 60 19 30 35 58 35 63 0
5 3 11 8 13 4 2 25 25 47 53 42 53 84 96 136 139 29 25 30 28 16 49 -40 62
-147 142 -222 167 -50 17 -57 19 -125 26 -30 3 -60 7 -67 9 -7 2 -15 0 -18 -4
-3 -5 -20 -6 -38 -1 -18 4 -42 4 -52 0 -11 -3 -33 -4 -50 -1 -29 6 -23 11 119
115 82 59 158 118 167 130 78 92 72 239 -11 322 -52 52 -104 71 -180 69 -74
-2 -87 -9 -263 -137 -60 -44 -111 -78 -113 -76 -2 3 14 54 37 114 65 173 60
265 -19 349 -47 49 -97 69 -172 70 -86 0 -136 -25 -198 -100 -12 -14 -49 -110
-104 -270 -11 -33 -24 -64 -28 -68 -4 -5 -29 56 -55 135 -26 79 -53 157 -60
173 -16 38 -67 89 -108 110 -46 23 -143 28 -193 9z"/>
<path d="M3335 4473 c-275 -36 -524 -265 -593 -543 -18 -73 -23 -261 -9 -315
3 -11 10 -35 16 -53 12 -39 11 -39 -77 -46 -35 -3 -72 -11 -82 -16 -11 -6 -20
-8 -20 -5 0 15 -141 -70 -180 -108 -41 -40 -109 -136 -115 -161 -1 -6 -4 -18
-8 -26 -14 -40 -18 -58 -23 -119 -3 -36 -7 -68 -9 -71 -2 -3 0 -12 4 -19 5 -7
5 -30 1 -52 -4 -22 -4 -41 -1 -44 4 -2 5 -25 1 -52 -3 -26 -3 -72 1 -101 3
-29 3 -55 0 -57 -3 -1 -4 -51 -1 -109 3 -58 1 -106 -3 -106 -5 0 -6 -4 -3 -8
3 -5 5 -35 5 -68 1 -53 2 -108 4 -142 0 -8 14 -12 36 -12 20 0 43 0 51 -1 8 0
40 0 70 0 30 0 62 0 70 0 8 0 66 0 127 1 62 1 116 -1 121 -4 4 -2 14 -1 20 3
7 4 33 5 57 1 25 -4 47 -5 49 -2 7 6 116 8 116 2 0 -3 27 -5 60 -5 33 0 60 2
60 5 0 3 46 4 102 3 111 -2 180 -3 242 -4 21 0 42 0 45 -1 3 0 8 0 11 1 13 5
120 5 120 1 0 -3 27 -5 60 -5 33 0 60 2 60 5 0 3 53 3 117 0 65 -3 144 -3 176
0 31 3 57 3 57 0 0 -9 80 1 86 11 3 5 5 176 4 381 -1 447 -1 395 -1 443 0 22
1 48 1 58 0 66 1 68 39 67 20 0 43 0 51 0 13 1 49 1 135 1 11 0 36 -1 56 -1
l37 -1 2 -57 c1 -31 1 -63 1 -69 -2 -29 -2 -46 -1 -98 1 -30 -1 -59 -4 -64 -4
-5 -3 -12 2 -15 4 -2 6 -26 2 -53 -3 -26 -3 -72 1 -101 3 -29 3 -54 1 -57 -2
-2 -3 -61 -2 -132 1 -70 1 -146 0 -168 -1 -22 -2 -47 -1 -55 1 -8 1 -31 1 -50
-1 -34 1 -36 37 -39 21 -2 45 -3 53 -2 39 3 125 -1 132 -5 4 -3 8 -2 8 3 0 4
55 7 122 5 68 -2 139 -3 158 -2 19 1 42 2 50 1 42 -2 134 0 141 5 4 2 10 1 13
-4 3 -5 28 -6 56 -2 27 4 52 5 54 3 4 -4 566 -6 584 -2 4 1 11 1 15 0 7 -1
180 -1 237 0 45 1 157 -1 168 -2 4 -1 26 -1 50 0 l43 1 -1 441 c-1 242 -5 450
-9 462 -5 12 -14 40 -21 62 -53 165 -228 297 -414 312 -39 3 -73 7 -75 9 -2 2
2 10 9 19 7 8 10 15 8 15 -3 0 0 24 7 53 12 52 13 250 1 292 -3 11 -9 36 -14
55 -32 125 -134 276 -243 361 -24 19 -46 36 -49 39 -13 14 -161 80 -215 96
-95 28 -287 25 -390 -5 -44 -14 -87 -30 -96 -38 -8 -7 -20 -13 -26 -13 -18 0
-127 -76 -173 -121 -45 -44 -72 -74 -120 -139 -24 -31 -71 -94 -87 -115 -158
-203 -167 -215 -176 -215 -2 0 -44 52 -93 116 -49 64 -97 125 -106 137 -10 11
-18 23 -18 26 0 3 -13 20 -28 36 -15 17 -39 46 -52 65 -25 36 -82 94 -141 143
-37 31 -198 112 -239 120 -14 3 -36 8 -50 12 -30 8 -213 14 -255 8z m214 -498
c48 -24 67 -44 171 -180 50 -66 97 -127 103 -135 85 -106 121 -160 99 -146
-11 6 -43 7 -292 7 -113 -1 -218 2 -234 5 -72 13 -138 62 -172 127 -20 39 -26
136 -11 184 21 66 103 141 172 156 41 9 132 -1 164 -18z m1753 1 c79 -38 130
-114 134 -204 5 -115 -60 -207 -171 -241 -33 -11 -61 -16 -62 -12 -2 3 -37 4
-79 1 -42 -3 -77 -2 -79 1 -2 3 -27 3 -55 -1 -27 -4 -52 -4 -55 -2 -2 2 -54 4
-116 3 l-112 -2 33 43 c19 24 38 48 44 53 6 6 27 33 45 60 19 28 38 52 41 55
3 3 19 23 36 45 16 22 34 46 41 55 7 8 30 38 52 66 34 44 87 80 141 97 30 10
127 -1 162 -17z"/>
<path d="M2291 1920 c-49 -6 -64 -26 -50 -72 4 -14 5 -28 3 -30 -4 -5 -5 -28
-5 -183 0 -66 -1 -198 -2 -293 -1 -94 0 -172 3 -172 3 0 5 -28 4 -63 -2 -185
138 -382 311 -437 22 -7 50 -16 62 -21 12 -5 364 -9 783 -9 l760 0 1 42 c1 24
1 47 0 52 -1 6 -2 28 -1 50 0 23 0 55 -1 71 0 17 -1 37 0 45 1 29 1 229 0 237
-1 4 -1 11 0 16 4 17 2 579 -2 583 -2 2 -1 26 3 54 4 28 4 53 1 56 -3 3 -4 20
-3 37 3 31 1 33 -35 36 -21 2 -45 3 -53 2 -39 -3 -125 1 -132 5 -4 3 -8 2 -8
-3 0 -4 -39 -7 -87 -6 -86 2 -183 3 -213 2 -8 0 -31 0 -50 0 -19 1 -42 1 -50
0 -8 0 -40 0 -70 0 -30 0 -62 0 -70 0 -8 0 -31 0 -50 0 -19 1 -42 1 -50 0 -8
0 -40 0 -70 0 -30 1 -83 0 -118 -1 -34 -2 -62 -1 -62 2 0 3 -28 4 -62 3 -35
-1 -63 -2 -63 -3 0 -1 -26 -2 -58 -3 -31 -1 -57 0 -57 3 0 3 -27 5 -60 5 -33
0 -60 -3 -60 -6 0 -3 -12 -4 -27 -2 -48 6 -316 8 -362 3z"/>
<path d="M4524 1922 c-35 -3 -43 -7 -46 -27 -3 -13 -2 -29 2 -35 4 -6 4 -31 0
-55 -4 -25 -4 -45 -1 -45 3 0 5 -28 3 -62 -2 -64 -3 -261 -1 -275 1 -4 1 -10
0 -13 -1 -4 -2 -604 -1 -727 l0 -43 748 0 c466 0 762 4 787 11 22 5 48 11 58
14 33 8 132 66 167 98 60 56 108 130 134 207 l25 75 1 438 0 437 -42 0 c-24 1
-182 0 -353 0 -170 -1 -317 -1 -325 -1 -50 2 -124 0 -131 -4 -4 -3 -10 -1 -13
3 -3 5 -26 6 -50 2 -25 -4 -50 -4 -55 0 -6 3 -38 3 -71 0 -33 -3 -65 -3 -71 1
-6 3 -27 3 -48 -1 -20 -4 -45 -4 -55 0 -10 3 -42 3 -72 0 -30 -3 -59 -3 -65 0
-6 4 -27 4 -48 0 -20 -4 -45 -4 -55 0 -10 3 -42 3 -72 0 -30 -3 -59 -3 -65 0
-6 4 -27 4 -48 0 -20 -4 -45 -4 -56 0 -10 3 -37 3 -60 0 -23 -4 -51 -4 -61 -1
-11 4 -38 5 -60 3z"/>
</g>
</svg>
